<svg width="324" height="265" viewBox="0 0 324 265" fill="none" xmlns="http://www.w3.org/2000/svg" style="height: 50px; width: 50px;" data-fc-idx="0">
        <g clip-path="url(#clip0_77_71)" style="fill: none !important;">
            <path d="M36.1122 86.9753C47.0843 97.3471 64.9629 99.3008 76.9864 90.5837C86.4538 83.3669 91.1128 70.5928 90.2109 58.7207C85.851 21.2907 41.374 21.5946 28.7476 48.6481C23.1868 60.824 25.7429 77.3561 36.1122 86.9753ZM49.4862 48.045C55.1965 43.988 63.0096 43.2354 68.4209 46.3904C76.5379 51.2 77.5893 62.1748 73.5284 70.4384C67.0657 83.666 45.5796 85.3207 42.4206 67.7321C41.2197 60.5153 43.472 52.2516 49.4813 48.0402L49.4862 48.045Z" fill="#ED5D21" style="fill: rgb(237, 93, 33) !important;"/>
            <path d="M51.5986 198.995C46.4863 164.286 62.0258 138.602 94.566 151.309C98.1205 146.62 102.196 142.93 107.318 141.212C58.9729 103.483 27.4262 151.405 35.4804 200.785L26.0275 202.217L29.283 217.78C32.0706 217.601 34.7088 217.066 37.3421 216.709C39.6667 229.946 43.2309 250.342 46.4863 264.834L62.1367 263.044C59.3491 250.342 55.0084 228.335 52.8381 215.098C63.2218 214.562 73.6008 215.455 83.8302 217.244L86.9313 201.499C75.3081 199.352 63.2219 198.46 51.5986 198.995Z" fill="#ED5D21" style="fill: rgb(237, 93, 33) !important;"/>
            <path d="M143.422 126.696C158.166 121.496 163.244 108.085 165.366 97.4578C160.052 97.4578 157.399 96.3965 152.084 93.2078C149.292 117.463 118.473 122.229 109.329 99.1173C101.154 78.3834 120.099 60.5054 134.456 66.2653C133.603 61.1422 134.968 55.8694 138.729 51.6484C130.492 49.3666 120.764 50.7849 112.932 54.7117C94.2477 63.8629 88.0936 86.512 95.5884 104.472C102.982 123.093 124.15 133.508 143.427 126.696H143.422Z" fill="#ED5D21" style="fill: rgb(237, 93, 33) !important;"/>
            <path d="M145.158 68.9042C146.007 74.0322 149.075 79.0251 154.182 82.6914C159.502 86.4204 166.013 88.2825 172.263 88.8132C181.972 89.7442 190.745 88.1474 199.122 85.2192L207.634 86.02C207.9 65.0112 216.538 10.75 181.842 10.75C165.887 10.75 155.783 25.3766 151.925 38.8116L165.087 42.5358C166.418 38.4112 168.009 34.6919 170.006 31.7637C176.122 22.1927 186.891 22.8584 191.54 32.4294C194.068 37.8806 194.468 44.533 194.468 49.9842C183.033 45.7294 169.471 43.7322 158.306 48.2572C154.534 49.7768 151.583 51.8608 149.427 54.2921C145.67 58.5132 144.305 63.7859 145.154 68.909L145.158 68.9042ZM161.72 62.3724C163.548 60.6985 167.074 59.5552 172.663 59.5552C180.641 59.285 187.817 61.6826 194.733 65.0064C194.733 67.5342 194.733 69.7918 194.468 72.0543C187.817 74.1818 181.171 75.5084 174.79 75.1128C168.839 74.6642 164.267 72.3486 161.923 69.6375C159.796 67.1772 159.511 64.3889 161.72 62.3676V62.3724Z" fill="#ED5D21" style="fill: rgb(237, 93, 33) !important;"/>
            <path d="M273.535 124.396L265.905 109.378C250.202 128.906 242.63 112.268 239.678 95.0893C234.821 64.963 238.824 33.4232 242.263 1.57465L223.497 0.166016C220.222 31.8264 214.435 79.6523 224.823 111.679C231.002 131.115 251.349 150.528 273.535 124.396Z" fill="#ED5D21" style="fill: rgb(237, 93, 33) !important;"/>
            <path d="M58.2494 107.362C52.6597 107.752 47.393 106.657 42.4833 103.956C29.9389 120.864 22.5261 109.595 19.4828 95.2724C14.4187 70.139 16.7434 43.5342 18.5906 16.6786L2.7907 16.1094C1.07856 42.7962 -2.21066 83.1351 7.56057 109.682C13.3867 125.799 30.3344 147.319 58.2542 107.357L58.2494 107.362Z" fill="#ED5D21" style="fill: rgb(237, 93, 33) !important;"/>
            <path d="M232.169 168.985C226.256 175.02 225.074 181.884 224.838 184.388C224.761 185.189 224.664 185.99 224.553 186.79C223.637 193.452 224.626 200.235 227.664 205.73C235.578 219.975 254.267 220.163 266.431 214.447C266.185 221.731 266.31 223.593 266.831 230.824V236.141C267.062 239.397 267.376 242.668 267.776 245.967C267.8 246.208 267.834 246.44 267.868 246.681H267.878L281.835 243.189L283.87 242.677C283.46 238.562 283.157 234.525 282.954 230.545V225.229C281.845 203.704 283.653 189.347 288.09 169.974C304.869 164.054 321.258 144.662 322.839 130.855C325.979 107.487 304.532 104.945 291.659 119.943C280.967 132.293 275.879 149.703 272.464 164.662C259.891 155.651 245.412 157.692 235.275 166.23C234.32 167.06 232.169 168.985 231.956 169.047M267.579 195.657C264.043 199.415 256.862 203.279 250.611 203.105C233.027 202.232 239.008 174.007 254.947 174.503C260.388 174.803 265.823 178.565 268.693 185.994C268.157 189.019 267.853 192.415 267.583 195.657H267.579ZM306.914 128.94C304.864 137.913 300.181 145.979 293.367 151.025C294.326 148.883 295.204 146.413 296.203 144.121C298.653 138.226 301.744 132.954 305.602 128.482C306.991 127.227 307.155 127.893 306.914 128.94Z" fill="#ED5D21" style="fill: rgb(237, 93, 33) !important;"/>
            <path d="M109.421 206.13C120.393 216.501 138.271 218.455 150.295 209.738C159.762 202.521 164.421 189.747 163.519 177.875C159.159 140.445 114.682 140.749 102.056 167.802C96.4951 179.978 99.0513 196.51 109.421 206.13ZM122.795 167.199C128.505 163.142 136.318 162.39 141.729 165.545C149.846 170.354 150.898 181.329 146.837 189.593C140.374 202.82 118.888 204.475 115.729 186.886C114.528 179.67 116.78 171.406 122.79 167.195L122.795 167.199Z" fill="#ED5D21" style="fill: rgb(237, 93, 33) !important;"/>
            <path d="M174.048 176.703C185.02 187.075 202.898 189.028 214.922 180.311C224.389 173.094 229.048 160.32 228.146 148.448C223.786 111.018 179.309 111.322 166.683 138.376C161.122 150.552 163.678 167.084 174.048 176.703ZM187.422 137.773C193.132 133.716 200.945 132.963 206.356 136.118C214.473 140.928 215.525 151.902 211.464 160.166C205.001 173.394 183.515 175.048 180.356 157.46C179.155 150.243 181.407 141.979 187.417 137.768L187.422 137.773Z" fill="#ED5D21" style="fill: rgb(237, 93, 33) !important;"/>
        </g>
        <defs style="fill: none !important;">
            <clipPath id="clip0_77_71" style="fill: none !important;">
                <rect width="324" height="265" fill="white" style="fill: rgb(255, 255, 255) !important;"/>
            </clipPath>
        </defs>
    </svg>